<?xml version="1.0" encoding="utf-8"?>
<!-- Generator: Adobe Illustrator 26.5.0, SVG Export Plug-In . SVG Version: 6.00 Build 0)  -->
<svg version="1.1" id="Layer_1" xmlns="http://www.w3.org/2000/svg" xmlns:xlink="http://www.w3.org/1999/xlink" x="0px" y="0px"
	 viewBox="0 0 512 512" style="enable-background:new 0 0 512 512;" xml:space="preserve">
<g>
	<path d="M268,148.6h-32v64h32c2.8,0,5.3-1.1,7.5-3.2c2.1-2.1,3.2-4.6,3.2-7.5v-42.7c0-2.8-1.1-5.3-3.2-7.5
		C273.3,149.6,270.8,148.6,268,148.6z"/>
	<rect x="371.2" y="301.5" width="42.7" height="64"/>
	<path d="M456.8,97.9c-8.4-8.4-18.4-12.5-30.1-12.5H85.3c-11.7,0-21.8,4.2-30.1,12.5c-8.4,8.3-12.5,18.4-12.5,30.1v256
		c0,11.7,4.2,21.8,12.5,30.1c8.3,8.3,18.4,12.5,30.1,12.5h341.3c11.7,0,21.8-4.2,30.1-12.5c8.3-8.4,12.5-18.4,12.5-30.1V128
		C469.3,116.3,465.2,106.2,456.8,97.9z M161.3,159.2c0,6-2,11.1-6.1,15.2s-9.2,6.1-15.2,6.1c6,0,11.1,2.1,15.2,6.1
		c4.1,4.1,6.1,9.1,6.1,15.2v21.3c0,6-2,11.1-6.1,15.2s-9.2,6.1-15.2,6.1H65.3v-32h64v-16H86.7v-32h42.7v-16h-64v-32H140
		c6,0,11.1,2.1,15.2,6.1c4.1,4.1,6.1,9.1,6.1,15.2V159.2z M296.5,322.9c0,6-2,11.1-6.1,15.2c-4.1,4.1-9.2,6.1-15.2,6.1h-42.7v21.3
		h64v32h-96v-53.3c0-6,2-11.1,6.1-15.2s9.2-6.1,15.2-6.1h42.7v-21.3h-64v-32h74.7c6,0,11.1,2,15.2,6.1s6.1,9.2,6.1,15.2V322.9z
		 M310.7,201.9c0,11.7-4.2,21.8-12.5,30.1c-8.4,8.3-18.4,12.5-30.1,12.5h-64v-128h64c11.7,0,21.8,4.2,30.1,12.5s12.5,18.4,12.5,30.1
		V201.9z M445.8,376.2c0,6-2,11.1-6.1,15.2c-4.1,4.1-9.2,6.1-15.2,6.1h-85.3v-128h85.3c6,0,11.1,2,15.2,6.1s6.1,9.2,6.1,15.2V376.2z
		"/>
</g>
</svg>
