<?xml version="1.0" encoding="utf-8"?>
<!-- Generator: Adobe Illustrator 26.5.0, SVG Export Plug-In . SVG Version: 6.00 Build 0)  -->
<svg version="1.1"
	 id="svg6190" xmlns:sodipodi="http://sodipodi.sourceforge.net/DTD/sodipodi-0.dtd" xmlns:inkscape="http://www.inkscape.org/namespaces/inkscape" xmlns:rdf="http://www.w3.org/1999/02/22-rdf-syntax-ns#" xmlns:cc="http://creativecommons.org/ns#" xmlns:dc="http://purl.org/dc/elements/1.1/" inkscape:export-ydpi="90"
	 xmlns="http://www.w3.org/2000/svg" xmlns:xlink="http://www.w3.org/1999/xlink" x="0px" y="0px" viewBox="0 0 654.5 618.2"
	 style="enable-background:new 0 0 654.5 618.2;" xml:space="preserve">
<style type="text/css">
	.st0{fill:#373737;}
</style>
<sodipodi:namedview  bordercolor="#666666" borderopacity="1" gridtolerance="10" guidetolerance="10" id="namedview4440" inkscape:current-layer="layer1" inkscape:cx="-10.601502" inkscape:cy="8.9823248" inkscape:pageopacity="0" inkscape:pageshadow="2" inkscape:snap-bbox="true" inkscape:window-height="1051" inkscape:window-maximized="1" inkscape:window-width="1884" inkscape:window-x="0" inkscape:window-y="0" inkscape:zoom="16" objecttolerance="10" pagecolor="#ffffff" showgrid="true">
	<inkscape:grid  id="grid3250" type="xygrid"></inkscape:grid>
</sodipodi:namedview>
<g id="layer1" inkscape:groupmode="layer" inkscape:label="Layer 1">
	
		<path id="path3308" inkscape:connector-curvature="0" inkscape:export-filename="/home/tyyppi/krita/animation/calligra/krita/pics/dark_playpause.png" inkscape:export-xdpi="90" inkscape:export-ydpi="90" sodipodi:nodetypes="cccc" class="st0" d="
		M290.9,200v218.2L400,309.2L290.9,200z"/>
	<path id="path6348-2" inkscape:connector-curvature="0" class="st0" d="M0,72.7v472.7h86.4l50-72.7h-27.3V145.5h252.3l50-72.7H0z
		 M556.8,72.7l-50,72.7h38.6v327.3H281.8l-50,72.7h422.7V72.7H556.8L556.8,72.7z M36.4,109.1h36.4v36.4H36.4V109.1z M580.7,109.1
		h36.4v36.4h-36.4V109.1z M36.4,181.8h36.4v36.4H36.4V181.8z M580.7,181.8h36.4v36.4h-36.4V181.8z M36.4,254.5h36.4v36.4H36.4V254.5
		z M580.7,254.5h36.4v36.4h-36.4V254.5z M36.4,327.3h36.4v36.4H36.4V327.3z M580.7,327.3h36.4v36.4h-36.4V327.3z M36.4,400h36.4
		v36.4H36.4V400z M580.7,400h36.4v36.4h-36.4V400z M36.4,472.7h36.4v36.4H36.4V472.7z M580.7,472.7h36.4v36.4h-36.4V472.7z"/>
	<path id="path3370" inkscape:connector-curvature="0" class="st0" d="M496.6,0l-99.7,145.5h72.7L569.3,0H496.6z M172.4,472.7
		L72.7,618.2h72.7l99.7-145.5H172.4L172.4,472.7z"/>
</g>
</svg>
