<?xml version="1.0" encoding="utf-8"?>
<!-- Generator: Adobe Illustrator 26.5.0, SVG Export Plug-In . SVG Version: 6.00 Build 0)  -->
<svg version="1.1" id="Layer_1" xmlns="http://www.w3.org/2000/svg" xmlns:xlink="http://www.w3.org/1999/xlink" x="0px" y="0px"
	 viewBox="0 0 512 512" style="enable-background:new 0 0 512 512;" xml:space="preserve">
<path d="M256,48C141.1,48,48,141.1,48,256s93.1,208,208,208s208-93.1,208-208C463.9,141.2,370.8,48.1,256,48z M256,432L256,432
	c-0.1,0-0.2,0-0.2,0c-0.1,0-0.2,0-0.2,0c-98.7,0-178.7-78.8-178.7-176s80-176,178.7-176c0.1,0,0.2,0,0.2,0c0.1,0,0.2,0,0.2,0l0,0
	c98.4,0.4,178.1,79,178.2,176C434.2,353,354.5,431.7,256,432z"/>
</svg>
