<?xml version="1.0" encoding="utf-8"?>
<!-- Generator: Adobe Illustrator 26.5.0, SVG Export Plug-In . SVG Version: 6.00 Build 0)  -->
<svg version="1.1" id="Layer_1" xmlns="http://www.w3.org/2000/svg" xmlns:xlink="http://www.w3.org/1999/xlink" x="0px" y="0px"
	 viewBox="0 0 512 512" style="enable-background:new 0 0 512 512;" xml:space="preserve">
<g>
	<path d="M256,48C141.1,48,48,141.1,48,256s93.1,208,208,208s208-93.1,208-208C463.9,141.2,370.8,48.1,256,48 M256,80
		c16.3,0,48,62.1,48,176c0,16.5-0.7,31.8-1.9,46.1c-14.3,1.2-29.7,1.9-46.1,1.9c-113.9,0-176-31.7-176-48
		C80.1,158.8,158.8,80.1,256,80 M86.8,304.5C126.6,325.3,191.5,336,256,336c14.2,0,28.4-0.5,42.3-1.5C288.5,398,268,432,256,432
		C177.5,431.9,108.5,379.9,86.8,304.5 M304.5,425.2"/>
</g>
</svg>
