<?xml version="1.0" encoding="utf-8"?>
<!-- Generator: Adobe Illustrator 26.5.0, SVG Export Plug-In . SVG Version: 6.00 Build 0)  -->
<svg version="1.1" id="Layer_1" xmlns="http://www.w3.org/2000/svg" xmlns:xlink="http://www.w3.org/1999/xlink" x="0px" y="0px"
	 viewBox="0 0 512 512" style="enable-background:new 0 0 512 512;" xml:space="preserve">
<g>
	<path d="M256,48C141.1,48,48,141.1,48,256s93.1,208,208,208s208-93.1,208-208C463.9,141.2,370.8,48.1,256,48 M80,256
		c0.1-97.2,78.8-175.9,176-176c16.3,0,48,62.1,48,176c0,16.5-0.7,31.8-1.9,46.1l-3.8,32.3C288.5,398,268,432,256,432
		c-78.5-0.1-147.5-52.1-169.2-127.5c-4.6-12.2-5.5-16.7-7.3-33 M304.5,425.2"/>
</g>
</svg>
