<?xml version="1.0" encoding="utf-8"?>
<!-- Generator: Adobe Illustrator 26.5.0, SVG Export Plug-In . SVG Version: 6.00 Build 0)  -->
<svg version="1.1" id="Layer_1" xmlns="http://www.w3.org/2000/svg" xmlns:xlink="http://www.w3.org/1999/xlink" x="0px" y="0px"
	 viewBox="0 0 495.9 527.9" style="enable-background:new 0 0 495.9 527.9;" xml:space="preserve">
<style type="text/css">
	.st0{fill:none;stroke:#000000;stroke-width:48;stroke-linecap:round;stroke-linejoin:round;stroke-miterlimit:128;}
</style>
<path class="st0" d="M414.4,28.2l50.1,39.9c4.8,4.6,7.6,10.9,7.5,17.6c0,6.6-2.8,13-7.7,17.5l-38.1,45.6L296.7,303.3
	c-2.3,2.6-5.3,4.4-8.6,5.2l-67.2,15.2c-8.8,0.4-16.5-6-17.6-14.7v-69.1c0.2-3.3,1.6-6.5,3.8-9L334.2,87.2l43.6-52.1
	C386.5,23.8,402.3,20.8,414.4,28.2z"/>
<path d="M233.1,107.9c13.3,0,24-10.7,24-24c0-13.3-10.7-24-24-24V107.9z M143.5,83.9v-24h-0.1L143.5,83.9z M24,203.9h24v-0.1
	L24,203.9z M24,383.9l24,0.1v-0.1H24z M143.5,503.9l-0.1,24h0.1V503.9z M322.7,503.9v24h0.1L322.7,503.9z M442.1,383.9h-24v0.1
	L442.1,383.9z M466.1,263.9c0-13.3-10.7-24-24-24s-24,10.7-24,24H466.1z M356.4,78C351.3,65.8,337.3,60,325,65
	c-12.3,5.1-18.1,19.1-13,31.3L356.4,78z M431.4,172c12.9-2.9,21.1-15.7,18.3-28.6c-2.9-12.9-15.7-21.1-28.6-18.3L431.4,172z
	 M113.6,390c-13.3,0-24,10.7-24,24c0,13.3,10.7,24,24,24V390z M352.5,438c13.3,0,24-10.7,24-24c0-13.3-10.7-24-24-24V438z
	 M233.1,59.9h-89.6v48h89.6V59.9z M143.4,59.9C64,60.1-0.2,124.6,0,204l48-0.1c-0.1-52.9,42.6-95.8,95.5-95.9L143.4,59.9z M0,203.9
	v180h48v-180H0z M0,383.9c-0.2,79.4,64,143.9,143.4,144.1l0.1-48C90.6,479.8,47.9,436.9,48,384L0,383.9z M143.5,527.9h179.2v-48
	H143.5V527.9z M322.7,527.9c79.4-0.2,143.6-64.7,143.4-144.1l-48,0.1c0.1,52.9-42.6,95.8-95.5,95.9L322.7,527.9z M466.1,383.9v-120
	h-48v120H466.1z M312,96.4c6.2,15.1,19,36.5,38,53.1c19.4,16.9,47.4,30.1,81.4,22.6l-10.4-46.9c-14.9,3.3-27.8-1.7-39.6-12
	c-12.2-10.6-21-25.3-25.1-35.2L312,96.4z M113.6,438h238.9v-48H113.6V438z"/>
</svg>
