<?xml version="1.0" encoding="utf-8"?>
<!-- Generator: Adobe Illustrator 26.5.0, SVG Export Plug-In . SVG Version: 6.00 Build 0)  -->
<svg version="1.1" id="Layer_1" xmlns="http://www.w3.org/2000/svg" xmlns:xlink="http://www.w3.org/1999/xlink" x="0px" y="0px"
	 viewBox="0 0 384 512" style="enable-background:new 0 0 384 512;" xml:space="preserve">
<style type="text/css">
	.st0{fill:#FFFFFF;stroke:#000000;stroke-miterlimit:10;}
</style>
<path class="st0" d="M259-290"/>
<g>
	<rect x="76.8" y="323.8" width="14.4" height="14.4"/>
	<rect x="76.8" y="266.1" width="14.4" height="14.4"/>
	<rect x="292.4" y="237.3" width="14.4" height="14.4"/>
	<rect x="76.8" y="237.3" width="14.4" height="14.4"/>
	<rect x="76.8" y="294.9" width="14.4" height="14.4"/>
	<rect x="76.8" y="352.6" width="14.4" height="14.4"/>
	<polygon points="256,0 256,128 384,128 	"/>
	<rect x="76.8" y="381.4" width="14.4" height="14.4"/>
	<rect x="292.4" y="294.9" width="14.4" height="14.4"/>
	<rect x="292.4" y="323.8" width="14.4" height="14.4"/>
	<rect x="292.4" y="352.6" width="14.4" height="14.4"/>
	<path d="M224,128V0H48C21.5,0,0,21.5,0,48v416c0,26.5,21.5,48,48,48h288c26.5,0,48-21.5,48-48V160H256C238.3,160,224,145.7,224,128
		z M62.4,223h163l-19.8,28.8h-99.9v129.6h10.8l-19.8,28.8H62.4V223z M220.8,316.6l-43.2,43.2v-86.4L220.8,316.6z M91.1,439
		l39.5-57.6h28.8L119.9,439H91.1z M321.6,410.2H154.2l19.8-28.8h104.4V251.7h-15.3l19.8-28.8h38.7V410.2z M287.9,194.1l-39.5,57.6
		h-28.8l39.5-57.6H287.9z"/>
	<rect x="292.4" y="381.4" width="14.4" height="14.4"/>
	<rect x="292.4" y="266.1" width="14.4" height="14.4"/>
</g>
</svg>
