<?xml version="1.0" encoding="utf-8"?>
<!-- Generator: Adobe Illustrator 23.0.1, SVG Export Plug-In . SVG Version: 6.00 Build 0)  -->
<svg version="1.1" id="Layer_1" xmlns="http://www.w3.org/2000/svg" xmlns:xlink="http://www.w3.org/1999/xlink" x="0px" y="0px"
	 viewBox="0 0 640 512" style="enable-background:new 0 0 640 512;" xml:space="preserve">
<path d="M538.5,480c-49.7,0-93.8-30.1-109.5-74.6l-7.5-21.4h-203l-7.5,21.4c-15.7,44.6-59.8,74.6-109.5,74.6
	C38.8,480-8.9,426.7,1.4,368.2l33.4-211.6c8.8-50.3,48.4-90.8,100.7-103.1C185.7,41.6,268.4,32,320,32c51.6,0,134.3,9.6,184.5,21.5
	h0.1c52.3,12.4,91.8,52.9,100.7,103.1l33.4,211.6C648.9,426.7,601.2,480,538.5,480z M280,212c0-6.6-5.4-12-12-12h-52v-52
	c0-6.6-5.4-12-12-12h-24c-6.6,0-12,5.4-12,12v52h-52c-6.6,0-12,5.4-12,12v24c0,6.6,5.4,12,12,12h52v52c0,6.6,5.4,12,12,12h24
	c6.6,0,12-5.4,12-12v-52h52c6.6,0,12-5.4,12-12V212z M472,272c0-22.1-17.9-40-40-40s-40,17.9-40,40c0,22.1,17.9,40,40,40
	S472,294.1,472,272z M536,176c0-22.1-17.9-40-40-40s-40,17.9-40,40s17.9,40,40,40S536,198.1,536,176z"/>
</svg>
