<?xml version="1.0" encoding="utf-8"?>
<!-- Generator: Adobe Illustrator 23.0.1, SVG Export Plug-In . SVG Version: 6.00 Build 0)  -->
<svg version="1.1" id="Layer_1" xmlns="http://www.w3.org/2000/svg" xmlns:xlink="http://www.w3.org/1999/xlink" x="0px" y="0px"
	 viewBox="0 0 512 512" style="enable-background:new 0 0 512 512;" xml:space="preserve">
<path d="M512,256c0,6.8-2.9,13.3-7.9,17.8l-80,72c-4.5,4-10.3,6.2-16.1,6.2c-3.3,0-6.6-0.7-9.8-2.1c-8.7-3.9-14.2-12.4-14.2-21.9
	v-40h-96v96h40c9.5,0,18.1,5.6,21.9,14.2s2.3,18.8-4.1,25.8l-72,80c-4.6,5-11,7.9-17.8,7.9s-13.3-2.9-17.8-7.9l-72-80
	c-6.3-7-7.9-17.2-4.1-25.8S174.5,384,184,384h40v-96h-96v40c0,9.5-5.6,18.1-14.2,21.9c-3.1,1.4-6.5,2.1-9.8,2.1
	c-5.8,0-11.6-2.1-16.1-6.2l-80-72c-5-4.6-7.9-11-7.9-17.8s2.9-13.3,7.9-17.8l80-72c7.1-6.3,17.2-7.9,25.8-4.1
	c8.7,3.9,14.2,12.4,14.2,21.9v40h96v-96h-40c-9.5,0-18.1-5.6-21.9-14.2s-2.3-18.8,4.1-25.8l72-80c9.1-10.1,26.6-10.1,35.7,0l72,80
	c6.3,7,7.9,17.2,4.1,25.8S337.5,128,328,128h-40v96h96v-40c0-9.5,5.6-18.1,14.2-21.9c8.7-3.8,18.8-2.3,25.8,4.1l80,72
	C509.1,242.7,512,249.2,512,256z"/>
</svg>
