<?xml version="1.0" encoding="utf-8"?>
<!-- Generator: Adobe Illustrator 26.5.0, SVG Export Plug-In . SVG Version: 6.00 Build 0)  -->
<svg version="1.1" id="Layer_1" xmlns="http://www.w3.org/2000/svg" xmlns:xlink="http://www.w3.org/1999/xlink" x="0px" y="0px"
	 viewBox="0 0 512 512" style="enable-background:new 0 0 512 512;" xml:space="preserve">
<path d="M458.3,282.1c-21-7.1-43.6,4.2-50.7,25.1C385.7,372.3,324.7,416,256,416c-50.8,0-97.9-24.1-127.9-64H144
	c17.7,0,32-14.3,32-32s-14.3-32-32-32H48c-8.8,0-16.8,3.6-22.6,9.4S16,311.2,16,320v112c0,17.7,14.3,32,32,32s32-14.3,32-32v-13.3
	c44.9,48.5,108.2,77.3,176,77.3c103.1,0,194.5-65.6,227.5-163.2C490.5,311.9,479.3,289.2,458.3,282.1z M464,48
	c-17.7,0-32,14.3-32,32v13.3C387.1,44.8,323.8,16,256,16C152.9,16,61.5,81.6,28.6,179.2c-7.1,20.9,4.2,43.6,25.1,50.7
	c4.2,1.4,8.6,2.1,12.8,2.1c16.7,0,32.3-10.5,37.9-27.2C126.3,139.7,187.3,96,256,96c50.8,0,97.9,24.1,127.9,64H368
	c-17.7,0-32,14.3-32,32s14.3,32,32,32h96c8.8,0,16.8-3.6,22.6-9.4s9.4-13.8,9.4-22.6V80C496,62.3,481.7,48,464,48z"/>
<path d="M367.2,255.9c0,3-1.3,5.8-3.4,7.7L329,294.9c-2,1.7-4.5,2.7-7,2.7c-1.4,0-2.9-0.3-4.3-0.9c-3.8-1.7-6.2-5.4-6.2-9.5v-17.4
	h-41.7v41.7h17.4c4.1,0,7.9,2.4,9.5,6.2c1.6,3.7,1,8.2-1.8,11.2l-31.3,34.7c-2,2.2-4.8,3.4-7.7,3.4c-3,0-5.8-1.3-7.7-3.4L217,328.9
	c-2.7-3-3.4-7.5-1.8-11.2s5.4-6.2,9.5-6.2h17.4v-41.7h-41.7v17.4c0,4.1-2.4,7.9-6.2,9.5c-1.3,0.6-2.8,0.9-4.3,0.9
	c-2.5,0-5-0.9-7-2.7l-34.7-31.3c-2.2-2-3.4-4.8-3.4-7.7s1.3-5.8,3.4-7.7l34.7-31.3c3.1-2.7,7.5-3.4,11.2-1.8
	c3.8,1.7,6.2,5.4,6.2,9.5V242h41.7v-41.7h-17.4c-4.1,0-7.9-2.4-9.5-6.2s-1-8.2,1.8-11.2l31.3-34.7c4-4.4,11.5-4.4,15.5,0L295,183
	c2.7,3,3.4,7.5,1.8,11.2s-5.4,6.2-9.5,6.2h-17.4V242h41.7v-17.4c0-4.1,2.4-7.9,6.2-9.5c3.8-1.6,8.2-1,11.2,1.8l34.7,31.3
	C365.9,250.2,367.2,253,367.2,255.9z"/>
</svg>
