<?xml version="1.0" encoding="utf-8"?>
<!-- Generator: Adobe Illustrator 23.0.1, SVG Export Plug-In . SVG Version: 6.00 Build 0)  -->
<svg version="1.1" id="Layer_1" xmlns="http://www.w3.org/2000/svg" xmlns:xlink="http://www.w3.org/1999/xlink" x="0px" y="0px"
	 viewBox="0 0 512 512" style="enable-background:new 0 0 512 512;" xml:space="preserve">
<path d="M458.3,282.1c-21-7.1-43.6,4.2-50.7,25.1C385.7,372.3,324.7,416,256,416c-50.8,0-97.9-24.1-127.9-64l15.9,0
	c17.7,0,32-14.3,32-32c0-17.7-14.3-32-32-32H48c-8.8,0-16.8,3.6-22.6,9.4S16,311.2,16,320v112c0,17.7,14.3,32,32,32
	c17.7,0,32-14.3,32-32v-13.3c44.9,48.5,108.2,77.3,176,77.3c103.1,0,194.5-65.6,227.5-163.2C490.5,311.9,479.3,289.2,458.3,282.1z
	 M464,48c-17.7,0-32,14.3-32,32v13.3C387.1,44.8,323.8,16,256,16C152.9,16,61.5,81.6,28.6,179.2c-7.1,20.9,4.2,43.6,25.1,50.7
	c4.2,1.4,8.6,2.1,12.8,2.1c16.7,0,32.3-10.5,37.9-27.2C126.3,139.7,187.3,96,256,96c50.8,0,97.9,24.1,127.9,64l-15.9,0
	c-17.7,0-32,14.3-32,32c0,17.7,14.3,32,32,32h96c8.8,0,16.8-3.6,22.6-9.4s9.4-13.8,9.4-22.6V80C496,62.3,481.7,48,464,48z
	 M256,304.2c26.6,0,48.2-21.6,48.2-48.2c0-26.6-21.6-48.2-48.2-48.2c-26.6,0-48.2,21.6-48.2,48.2C207.8,282.6,229.4,304.2,256,304.2
	z"/>
</svg>
