<?xml version="1.0" encoding="utf-8"?>
<!-- Generator: Adobe Illustrator 26.5.0, SVG Export Plug-In . SVG Version: 6.00 Build 0)  -->
<svg version="1.1" id="Layer_1" xmlns="http://www.w3.org/2000/svg" xmlns:xlink="http://www.w3.org/1999/xlink" x="0px" y="0px"
	 viewBox="0 0 500 500" style="enable-background:new 0 0 500 500;" xml:space="preserve">
<style type="text/css">
	.st0{display:none;fill:#3D3F3F;}
	.st1{fill:#242828;}
</style>
<path class="st0" d="M282.4,248c-10.2-10-20.3-20.2-30.4-30.4c-1.7-1.8-2.7-1.6-4.3,0.1c-9.9,10.1-19.9,20.1-30,30
	c-2.1,2-1.9,3.1,0.1,5.1c10,9.8,19.8,19.7,29.7,29.6c0.7,0.7,1.1,1.7,1.3,1.9c2.2,0.1,2.6-1,3.3-1.7c10.1-10.1,20.2-20.3,30.4-30.3
	C284.2,250.6,284,249.6,282.4,248z M277.6,252.2c-8.5,8.5-17,16.9-25.4,25.5c-1.8,1.8-2.8,2-4.7,0.1c-8.4-8.6-16.9-17-25.4-25.4
	c-1.6-1.6-1.8-2.5-0.1-4.2c8.7-8.5,17.3-17.1,25.8-25.7c1.5-1.5,2.4-1.7,3.9-0.1c8.6,8.8,17.4,17.5,26.1,26.2c0.5,0.5,1,1.2,1.6,1.8
	C278.8,251,278.2,251.6,277.6,252.2z"/>
<path class="st1" d="M250.9,227.5c7.7,7.7,15.5,15.4,22.8,22.8c-7.2,7.3-15,15-22.8,22.8C250.9,257.9,250.9,242.5,250.9,227.5z"/>
<path d="M474.7,236.4L263.9,25.5c-7.7-7.7-20.2-7.7-27.9,0L25.2,236.4c-7.7,7.7-7.7,20.2,0,27.9L236,475.1c7.7,7.7,20.2,7.7,27.9,0
	l210.8-210.8C482.4,256.5,482.4,244.1,474.7,236.4z M430.6,266L265.3,431.3c-7.7,7.7-20.2,7.7-27.9,0L72,266
	c-7.7-7.7-7.7-20.2,0-27.9L237.4,72.8c7.7-7.7,20.2-7.7,27.9,0l165.3,165.3C438.3,245.8,438.3,258.3,430.6,266z"/>
<path d="M397.3,236.1L263.9,102.7c-3.8-3.8-8.9-5.8-13.9-5.8v306.2c5,0,10.1-1.9,13.9-5.8l133.4-133.4
	C405,256.2,405,243.8,397.3,236.1z"/>
</svg>
