<?xml version="1.0" encoding="utf-8"?>
<!-- Generator: Adobe Illustrator 26.5.0, SVG Export Plug-In . SVG Version: 6.00 Build 0)  -->
<svg version="1.1" id="Layer_1" xmlns="http://www.w3.org/2000/svg" xmlns:xlink="http://www.w3.org/1999/xlink" x="0px" y="0px"
	 viewBox="0 0 498 256.7" style="enable-background:new 0 0 498 256.7;" xml:space="preserve">
<path d="M289.9,2.1c10.9,0.5,21.5,1.8,32.2,3.6c0.8,0.1,1.6,0.3,2.4,0.4c34.3,5.9,69.2,15.2,100.4,31c0.7,0.4,1.5,0.7,2.2,1.1
	c29.7,14.6,56.3,35.7,67.8,67.7c6,20.1,2.7,39.6-6.5,58.1c-22,40.5-70.4,61.4-112.3,74.1c-27.5,8-57.5,15.3-86.2,14.9
	c-5.1-20.2-9.1-40.3-11.7-61c-0.2-2-0.5-3.9-0.8-5.9c-4.9-39.7-4.8-81.4,0.5-121.2c0.1-0.7,0.2-1.3,0.3-2
	C280.9,42.6,284.8,22.3,289.9,2.1z"/>
<path d="M245.6,0c1.4,0,1.4,0,2.8,0c1,0,1.9,0,2.9,0c1,0,2,0,3,0c7.3,0,14.4,0.4,21.6,1.1c-0.2,1.1-0.5,2.3-0.7,3.5
	c-0.7,3.5-1.4,7-2.1,10.5c-0.8,4-1.6,8-2.4,12c-14.3,70.4-12.3,142,2.1,212.2c1.1,5.6,2.2,11.2,3.2,16.8c-5.3,0.1-10.7,0.2-16,0.3
	c-1.8,0-3.6,0.1-5.4,0.1c-2.6,0.1-5.2,0.1-7.8,0.1c-0.8,0-1.6,0.1-2.5,0.1c-3.9,0-5.8-0.1-8.6-2.9c-0.8-1.3-0.8-1.3-1.6-2.7
	c-0.4-0.6-0.8-1.3-1.2-1.9c-31.9-58.4-39.5-127.1-21-191.1c14.5-48,14.5-48,26.2-57C240.8,0.2,242.6,0,245.6,0z"/>
<path d="M70.8,65c1,0,2,0,3,0c1.6,0,1.6,0,3.2,0c1.1,0,2.3,0,3.4,0c3.8,0,7.5,0,11.3,0c2.6,0,5.2,0,7.8,0c5.5,0,10.9,0,16.4,0
	c6.3,0,12.6,0,18.9,0c6.1,0,12.2,0,18.2,0c2.6,0,5.2,0,7.7,0c3.6,0,7.2,0,10.8,0c1.6,0,1.6,0,3.2,0c1.5,0,1.5,0,3,0
	c0.9,0,1.7,0,2.6,0c3.9,0.4,6.6,1.5,9.4,4.2c1.4,4.2,0.9,7-1,11c-3,2-5.5,2.3-9,2.3c-1,0-2,0-3.1,0c-1.7,0-1.7,0-3.4,0
	c-1.2,0-2.3,0-3.6,0c-3.2,0-6.4,0-9.7,0c-3.4,0-6.7,0-10.1,0c-5.7,0-11.3,0-17,0c-6.5,0-13.1,0-19.6,0c-5.6,0-11.2,0-16.8,0
	c-3.4,0-6.7,0-10.1,0c-3.7,0-7.5,0-11.2,0c-1.1,0-2.2,0-3.4,0c-1.5,0-1.5,0-3.1,0c-0.9,0-1.8,0-2.7,0c-2.6-0.3-4.2-0.8-6.4-2.3
	c-1.5-3.7-2.3-5.9-1.2-9.8c1.4-2.4,2.4-3.9,5.1-4.8C66.1,65.1,68.4,65,70.8,65z"/>
<path d="M67.9,174.9c1,0,2.1,0,3.1,0c1.1,0,2.3,0,3.4,0c1.2,0,2.4,0,3.6,0c3.3,0,6.5,0,9.8,0c2.7,0,5.5,0,8.2,0c6.4,0,12.9,0,19.3,0
	c6.7,0,13.3,0,20-0.1c5.7,0,11.4,0,17.1,0c3.4,0,6.8,0,10.2,0c3.8,0,7.6,0,11.4,0c1.7,0,1.7,0,3.4,0c1.6,0,1.6,0,3.1,0
	c0.9,0,1.8,0,2.7,0c3.2,0.7,4.4,2,6.4,4.5c1.1,3,1.1,4.6,0.2,7.7c-1.2,2.3-1.2,2.3-4.2,4.3c-2.3,0.3-2.3,0.3-5,0.3
	c-1.5,0-1.5,0-3.1,0c-1.1,0-2.3,0-3.4,0c-1.2,0-2.4,0-3.6,0c-3.3,0-6.5,0-9.8,0c-2.7,0-5.5,0-8.2,0c-6.4,0-12.9,0-19.3,0
	c-6.7,0-13.3,0-20,0c-5.7,0-11.4,0-17.1,0c-3.4,0-6.8,0-10.2,0c-3.8,0-7.6,0-11.4,0c-1.1,0-2.3,0-3.4,0c-1.6,0-1.6,0-3.1,0
	c-1.3,0-1.3,0-2.7,0c-2.9-0.5-4.3-1.3-6.4-3.4c-1-3.3-1.2-5.4-0.2-8.8C61,175.3,63.5,174.9,67.9,174.9z"/>
<path d="M9.8,120c1,0,2.1,0,3.1,0c1.1,0,2.3,0,3.4,0c1.8,0,1.8,0,3.6,0c3.3,0,6.6,0,9.8,0c2,0,4.1,0,6.1,0c6.4,0,12.8,0,19.2,0
	c7.4,0,14.8,0,22.2-0.1c5.7,0,11.4,0,17.1,0c3.4,0,6.8,0,10.2,0c3.8,0,7.6,0,11.4,0c1.1,0,2.3,0,3.4,0c1,0,2.1,0,3.1,0
	c0.9,0,1.8,0,2.7,0c3.2,0.7,4.4,2,6.4,4.5c0.5,2,0.5,2,0.5,4c0,1,0,1,0,2c-0.8,2.9-2.2,4.1-4.5,6c-2.4,0.5-2.4,0.5-5.1,0.5
	c-1.6,0-1.6,0-3.1,0c-1.1,0-2.3,0-3.4,0c-1.2,0-2.4,0-3.6,0c-3.3,0-6.5,0-9.8,0c-3.4,0-6.8,0-10.3,0c-5.8,0-11.5,0-17.2,0
	c-6.6,0-13.3,0-19.9,0c-6.4,0-12.8,0-19.2,0c-2.7,0-5.4,0-8.2,0c-3.8,0-7.6,0-11.4,0c-1.7,0-1.7,0-3.4,0c-1,0-2.1,0-3.1,0
	c-0.9,0-1.8,0-2.7,0c-2.9-0.5-4.3-1.3-6.4-3.4c-1.1-4-1.4-6.1,0.3-9.9C3.9,119.9,5.7,120,9.8,120z"/>
</svg>
