<?xml version="1.0" encoding="utf-8"?>
<!-- Generator: Adobe Illustrator 26.5.0, SVG Export Plug-In . SVG Version: 6.00 Build 0)  -->
<svg version="1.1" id="Layer_1" xmlns="http://www.w3.org/2000/svg" xmlns:xlink="http://www.w3.org/1999/xlink" x="0px" y="0px"
	 viewBox="0 0 500 500" style="enable-background:new 0 0 500 500;" xml:space="preserve">
<style type="text/css">
	.st0{display:none;fill:#3D3F3F;}
	.st1{stroke:#000000;stroke-width:10;stroke-miterlimit:10;}
</style>
<path class="st0" d="M282.4,248c-10.2-10-20.3-20.2-30.4-30.4c-1.7-1.8-2.7-1.6-4.3,0.1c-9.9,10.1-19.9,20.1-30,30
	c-2.1,2-1.9,3.1,0.1,5.1c10,9.8,19.8,19.7,29.7,29.6c0.7,0.7,1.1,1.7,1.3,1.9c2.2,0.1,2.6-1,3.3-1.7c10.1-10.1,20.2-20.3,30.4-30.3
	C284.2,250.6,284,249.6,282.4,248z M277.6,252.2c-8.5,8.5-17,16.9-25.4,25.5c-1.8,1.8-2.8,2-4.7,0.1c-8.4-8.6-16.9-17-25.4-25.4
	c-1.6-1.6-1.8-2.5-0.1-4.2c8.7-8.5,17.3-17.1,25.8-25.7c1.5-1.5,2.4-1.7,3.9-0.1c8.6,8.8,17.4,17.5,26.1,26.2c0.5,0.5,1,1.2,1.6,1.8
	C278.8,251,278.2,251.6,277.6,252.2z"/>
<path d="M353.8,301.3L199,146.5c-5.7-5.7-14.8-5.7-20.5,0L23.7,301.3c-5.7,5.7-5.7,14.8,0,20.5l154.8,154.8c5.7,5.7,14.8,5.7,20.5,0
	l154.8-154.8C359.4,316.1,359.4,307,353.8,301.3z M321.4,323.1L200,444.5c-5.7,5.7-14.8,5.7-20.5,0L58,323.1
	c-5.7-5.7-5.7-14.8,0-20.5l121.5-121.4c5.7-5.7,14.8-5.7,20.5,0l121.4,121.4C327,308.2,327,317.4,321.4,323.1z"/>
<path d="M296.9,301.1l-98-98c-2.8-2.8-6.5-4.3-10.2-4.3v224.9c3.7,0,7.4-1.4,10.2-4.3l98-98C302.6,315.9,302.6,306.8,296.9,301.1z"
	/>
<path class="st1" d="M454.1,138.7H287.9c-6.8,0-12.3-5.5-12.3-12.3v-9.1c0-6.8,5.5-12.3,12.3-12.3h166.1c6.8,0,12.3,5.5,12.3,12.3
	v9.1C466.4,133.2,460.9,138.7,454.1,138.7z"/>
</svg>
