<?xml version="1.0" encoding="utf-8"?>
<!-- Generator: Adobe Illustrator 26.5.0, SVG Export Plug-In . SVG Version: 6.00 Build 0)  -->
<svg version="1.1" id="package-alt" xmlns="http://www.w3.org/2000/svg" xmlns:xlink="http://www.w3.org/1999/xlink" x="0px"
	 y="0px" viewBox="0 0 600.3 662.8" style="enable-background:new 0 0 600.3 662.8;" xml:space="preserve">
<style type="text/css">
	.st0{fill:#231F20;}
</style>
<path class="st0" d="M318,287.8l-18,9l-18-9L15.3,154.5l0,0l0,0L282,4.5c10.3-6,23-6,33.3,0l266.7,150l0,0l0,0l-133.3,66.7
	c-0.8-0.9-1.9-1.6-3-2l-133.3-66.7c-17-7.1-36.5,1-43.6,18c-6.4,15.3-0.6,32.9,13.6,41.4l92.3,46.3L318,287.8z M0,184.1L0,184.1v300
	c0,12,6.5,23.1,17,29l266.7,149.7V329.5l-16.7-8.3L0,184.1z M600,184.1l-133.3,66.7v148c0,18.4-14.9,33.3-33.3,33.3
	c-18.4,0-33.3-14.9-33.3-33.3V284.1l-83.3,41.7v333.3l266.7-149.7c9.9-5.7,16.1-16,16.7-27.3v-300
	C600.4,182.8,600.4,183.5,600,184.1z"/>
</svg>
