<?xml version="1.0" encoding="utf-8"?>
<!-- Generator: Adobe Illustrator 26.5.0, SVG Export Plug-In . SVG Version: 6.00 Build 0)  -->
<svg version="1.1" id="Layer_1" xmlns="http://www.w3.org/2000/svg" xmlns:xlink="http://www.w3.org/1999/xlink" x="0px" y="0px"
	 viewBox="0 0 600 750" style="enable-background:new 0 0 600 750;" xml:space="preserve">
<style type="text/css">
	.st0{fill:#231815;}
</style>
<path class="st0" d="M309.8,300C475,300,600,235.5,600,150S475,0,309.8,0C160.8,0,0,57.2,0,150S160.8,300,309.8,300z M309.8,50
	C451.3,50,550,102.8,550,150s-98.8,100-240.2,100S50,195.3,50,150S166,50,309.8,50z M42.8,582.2c-1.2-1.1-2.6-2.1-4-3
	c-1.3-1-2.7-1.8-4.3-2.2c-1.5-0.9-3.1-1.6-4.8-2c-8.2-1.6-16.6,0.9-22.5,6.8c-2.2,2.4-4,5.2-5.3,8.2c-1.3,3.2-2,6.6-2,10
	c-0.1,3.3,0.6,6.5,2,9.5c1.3,3,3,5.8,5.3,8.2c2.4,2.2,5.2,4,8.2,5.2c6.1,2.7,12.9,2.7,19,0c3-1.3,5.8-3,8.2-5.2
	c2.2-2.4,4-5.2,5.2-8.2c2.7-6.1,2.7-12.9,0-19C46.7,587.5,45,584.7,42.8,582.2L42.8,582.2z M204.8,690c-37.4-6.6-73.6-19-107.2-36.8
	c-12-6.9-27.3-2.8-34.2,9.3c-6.9,12-2.8,27.3,9.2,34.2c38.3,20.3,79.6,34.6,122.2,42.3h4.8c13.8,1.3,26.1-8.8,27.4-22.6
	c1.3-13.8-8.8-26.1-22.6-27.4L204.8,690z M559.8,552c-12.6,5.5-18.4,20.1-13,32.8c2.1,4.8,3.2,10,3.2,15.2
	c0,47.2-98.8,100-240.2,100H300c-13.8,0-25,11.2-25,25s11.2,25,25,25h10.2C475,750,600,685.5,600,600c0-12-2.5-23.8-7.2-34.8
	c-5.3-12.7-20-18.7-32.7-13.4C559.9,551.9,559.8,552,559.8,552z"/>
<path class="st0" d="M559.8,252c-12.6,5.5-18.4,20.1-13,32.8c2.1,4.8,3.2,10,3.2,15.2c0,47.2-98.8,100-240.2,100S50,345.2,50,300
	c0-4.9,1.2-9.7,3.5-14c6.5-12.2,2-27.3-10.2-33.8c-12.2-6.5-27.3-2-33.8,10.2c-0.2,0.5-0.5,0.9-0.7,1.4C3.1,275,0.1,287.4,0,300
	c0,92.7,160.8,150,309.7,150C475,450,600,385.5,600,300c0-12-2.5-23.8-7.2-34.8c-5.3-12.7-20-18.7-32.7-13.4
	C559.9,251.9,559.8,252,559.8,252z"/>
<path class="st0" d="M559.8,402c-12.6,5.5-18.4,20.1-13,32.8c2.1,4.8,3.2,10,3.2,15.2c0,47.2-98.8,100-240.2,100S50,495.2,50,450
	c0-4.9,1.2-9.7,3.5-14c6.5-12.2,2-27.3-10.2-33.8c-12.2-6.5-27.3-2-33.8,10.2c-0.2,0.5-0.5,0.9-0.7,1.4C3.1,425,0.1,437.4,0,450
	c0,92.8,160.8,150,309.7,150C475,600,600,535.5,600,450c0-12-2.5-23.8-7.2-34.8c-5.3-12.7-20-18.7-32.7-13.4
	C559.9,401.9,559.8,402,559.8,402z"/>
</svg>
