<?xml version="1.0" encoding="utf-8"?>
<!-- Generator: Adobe Illustrator 23.0.1, SVG Export Plug-In . SVG Version: 6.00 Build 0)  -->
<svg version="1.1" id="Layer_1" xmlns="http://www.w3.org/2000/svg" xmlns:xlink="http://www.w3.org/1999/xlink" x="0px" y="0px"
	 viewBox="0 0 448 512" style="enable-background:new 0 0 448 512;" xml:space="preserve">
<path d="M448,320v136c0,13.3-10.7,24-24,24H288c-12.9,0-24.6-7.8-29.6-19.7c-4.9-12-2.2-25.7,6.9-34.9l30.1-30.1L224,323.9
	l-71.4,71.4l30.1,30.1c9.2,9.2,11.9,22.9,6.9,34.9c-4.9,12-16.6,19.8-29.6,19.8H24c-13.3,0-24-10.7-24-24V320
	c0-12.9,7.8-24.6,19.8-29.6c4-1.6,8.1-2.4,12.3-2.4c8.3,0,16.5,3.3,22.6,9.4l30.1,30.1l71.4-71.4l-71.4-71.4l-30.1,30.1
	c-9.2,9.2-22.9,11.9-34.9,6.9C7.8,216.6,0,204.9,0,192V56c0-13.3,10.7-24,24-24h136c12.9,0,24.6,7.8,29.6,19.8
	c1.6,4,2.4,8.1,2.4,12.2c0,8.3-3.3,16.5-9.4,22.6l-30.1,30.1l71.4,71.4l71.4-71.4l-30.1-30.1c-9.2-9.2-11.9-22.9-6.9-34.9
	c4.9-12,16.6-19.8,29.6-19.8h136c13.3,0,24,10.7,24,24v136c0,12.9-7.8,24.6-19.8,29.6c-12,4.9-25.7,2.2-34.9-6.9l-30.1-30.1
	L291.9,256l71.4,71.4l30.1-30.1c9.2-9.2,22.9-11.9,34.9-6.9C440.2,295.4,448,307.1,448,320z"/>
</svg>
