<?xml version="1.0" encoding="utf-8"?>
<!-- Generator: Adobe Illustrator 26.5.0, SVG Export Plug-In . SVG Version: 6.00 Build 0)  -->
<svg version="1.1" id="Layer_1" xmlns="http://www.w3.org/2000/svg" xmlns:xlink="http://www.w3.org/1999/xlink" x="0px" y="0px"
	 viewBox="0 0 716.7 716.7" style="enable-background:new 0 0 716.7 716.7;" xml:space="preserve">
<style type="text/css">
	.st0{fill:#020202;}
</style>
<path class="st0" d="M574.7,0H142C63.6,0,0,63.6,0,142v432.7c0,78.4,63.6,142,142,142h432.7c78.4,0,142-63.6,142-142V142
	C716.7,63.6,653.1,0,574.7,0z M550,291.6c0,0,0,0.1,0,0.1V375c0,13.8-11.2,25-25,25s-25-11.2-25-25v-22.9l-67.1,67.1
	c-22.7,22.7-59.7,22.7-82.5,0l-52.9-52.9c-2.1-2.1-4.6-2.4-5.9-2.4c-1.3,0-3.8,0.3-5.9,2.4l-76.4,76.4c-4.9,4.9-11.3,7.3-17.7,7.3
	s-12.8-2.4-17.7-7.3c-9.8-9.8-9.8-25.6,0-35.4l76.4-76.4c22.7-22.7,59.7-22.7,82.5,0l52.9,52.9c3.2,3.2,8.5,3.2,11.7,0l67.1-67.1
	h-22.9c-13.8,0-25-11.2-25-25s11.2-25,25-25H525c0.1,0,0.1,0,0.2,0c0,0,0.1,0,0.1,0c3.4,0,6.6,0.7,9.5,2c0,0,0,0,0,0
	c0,0,0.1,0,0.1,0c2.3,1,4.5,2.4,6.5,4.1c0,0,0.1,0,0.1,0.1c0,0,0,0,0,0c0.8,0.7,1.6,1.5,2.3,2.3c0,0,0,0,0,0c0,0,0,0.1,0.1,0.1
	c1.7,2,3.1,4.2,4.1,6.5c0,0,0,0.1,0,0.1c0,0,0,0,0,0c1.3,2.9,2,6.1,2,9.5C550,291.5,550,291.5,550,291.6
	C550,291.6,550,291.6,550,291.6z M591.7,225c-55.2,0-100-44.8-100-100s44.8-100,100-100s100,44.8,100,100S646.9,225,591.7,225z"/>
</svg>
